<?xml version="1.0" encoding="utf-8"?>
<!-- Generator: Adobe Illustrator 22.0.1, SVG Export Plug-In . SVG Version: 6.00 Build 0)  -->
<svg version="1.1" id="Layer_1" xmlns="http://www.w3.org/2000/svg" xmlns:xlink="http://www.w3.org/1999/xlink" x="0px" y="0px" width="20" height="20"
	 viewBox="0 2 10 8" style="enable-background:new 0 0 10 10;" xml:space="preserve">
<style type="text/css">
	.st0{fill:#FFFFFF;stroke:#8F8F8F;stroke-width:0.5;stroke-miterlimit:50;}
	.st1{fill:#FFFFFF;fill-opacity:0;stroke:#8F8F8F;stroke-width:0.5;stroke-miterlimit:50;}
</style>
<path class="st0" d="M9.1,5.3c0.5-0.5,0.5-1.3,0-1.9c0,0,0,0,0,0c-0.5-0.5-1.3-0.5-1.8,0L5,5.7L2.7,3.4c-0.5-0.5-1.3-0.5-1.9,0
	c-0.5,0.5-0.5,1.3,0,1.9c0,0,0,0,0,0l3.2,3.3c0.5,0.5,1.3,0.5,1.9,0L9.1,5.3z"/>
<path class="st1" d="M9.1,5.3c0.5-0.5,0.5-1.3,0-1.9c0,0,0,0,0,0c-0.5-0.5-1.3-0.5-1.8,0L5,5.7L2.7,3.4c-0.5-0.5-1.3-0.5-1.9,0
	c-0.5,0.5-0.5,1.3,0,1.9c0,0,0,0,0,0l3.2,3.3c0.5,0.5,1.3,0.5,1.9,0L9.1,5.3z"/>
</svg>
