<svg xmlns="http://www.w3.org/2000/svg" xmlns:xlink="http://www.w3.org/1999/xlink" width="144" height="43" viewBox="0 0 144 43"><defs><path id="h2hwa" d="M959.25 2169c0-5.523 4.477-10 10-10h123c5.523 0 10 4.477 10 10v23c0 5.523-4.477 10-10 10h-123c-5.523 0-10-4.477-10-10zm124.072 10.842a2.2 2.2 0 0 0 0-3.183 2.38 2.38 0 0 0-3.288 0l-4.036 3.906-4.036-3.906a2.38 2.38 0 0 0-3.289 0 2.2 2.2 0 0 0 0 3.183l5.68 5.498a2.38 2.38 0 0 0 3.289 0z"/><clipPath id="h2hwb"><use fill="#fff" xlink:href="#h2hwa"/></clipPath></defs><g><g transform="translate(-959 -2159)"><use fill="#fff" fill-opacity="0" stroke="#8f8f8f" stroke-miterlimit="50" stroke-width="2" clip-path="url(&quot;#h2hwb&quot;)" xlink:href="#h2hwa"/></g></g></svg>