<svg xmlns="http://www.w3.org/2000/svg" xmlns:xlink="http://www.w3.org/1999/xlink" width="58" height="58" viewBox="0 0 58 58"><defs><path id="f9fea" d="M23 471c0-5.523 4.477-10 10-10h38c5.523 0 10 4.477 10 10v38c0 5.523-4.477 10-10 10H33c-5.523 0-10-4.477-10-10zm31.21 29.983a3.295 3.295 0 0 0 4.77 0c1.318-1.362 1.318-3.57 0-4.933l-5.854-6.054 5.855-6.053c1.317-1.362 1.317-3.571 0-4.933a3.295 3.295 0 0 0-4.77 0l-8.24 8.52c-1.318 1.362-1.318 3.57 0 4.933z"/><clipPath id="f9feb"><use fill="#fff" xlink:href="#f9fea"/></clipPath></defs><g><g transform="translate(-23 -461)"><use fill="#fff" fill-opacity="0" stroke="#fff" stroke-miterlimit="50" stroke-width="4" clip-path="url(&quot;#f9feb&quot;)" xlink:href="#f9fea"/></g></g></svg>